<?xml version="1.0" encoding="UTF-8" standalone="no"?>
<svg
   width="48"
   height="48"
   version="1.1"
   id="svg40"
   sodipodi:docname="office-address-book.svg"
   inkscape:version="1.4.2 (unknown)"
   xmlns:inkscape="http://www.inkscape.org/namespaces/inkscape"
   xmlns:sodipodi="http://sodipodi.sourceforge.net/DTD/sodipodi-0.dtd"
   xmlns:xlink="http://www.w3.org/1999/xlink"
   xmlns="http://www.w3.org/2000/svg"
   xmlns:svg="http://www.w3.org/2000/svg"
   xmlns:rdf="http://www.w3.org/1999/02/22-rdf-syntax-ns#"
   xmlns:cc="http://creativecommons.org/ns#"
   xmlns:dc="http://purl.org/dc/elements/1.1/">
  <metadata
     id="metadata44">
    <rdf:RDF>
      <cc:Work
         rdf:about="">
        <dc:format>image/svg+xml</dc:format>
        <dc:type
           rdf:resource="http://purl.org/dc/dcmitype/StillImage" />
      </cc:Work>
    </rdf:RDF>
  </metadata>
  <sodipodi:namedview
     pagecolor="#ffffff"
     bordercolor="#666666"
     borderopacity="1"
     objecttolerance="10"
     gridtolerance="10"
     guidetolerance="10"
     inkscape:pageopacity="0"
     inkscape:pageshadow="2"
     inkscape:window-width="862"
     inkscape:window-height="480"
     id="namedview42"
     showgrid="false"
     inkscape:zoom="4.9166667"
     inkscape:cx="2.0338983"
     inkscape:cy="24"
     inkscape:window-x="0"
     inkscape:window-y="25"
     inkscape:window-maximized="0"
     inkscape:current-layer="svg40"
     inkscape:showpageshadow="2"
     inkscape:pagecheckerboard="0"
     inkscape:deskcolor="#d1d1d1">
    <inkscape:grid
       id="grid1"
       units="px"
       originx="0"
       originy="0"
       spacingx="1"
       spacingy="1"
       empcolor="#0099e5"
       empopacity="0.30196078"
       color="#0099e5"
       opacity="0.14901961"
       empspacing="5"
       enabled="true"
       visible="false" />
  </sodipodi:namedview>
  <defs
     id="defs24">
    <linearGradient
       id="a"
       y1="538.8"
       y2="505.8"
       x2="0"
       gradientUnits="userSpaceOnUse"
       gradientTransform="matrix(1.45455 0 0 1 -198.81 -31)">
      <stop
         stop-color="#bd8d48"
         id="stop2" />
      <stop
         offset="1"
         stop-color="#e8b971"
         id="stop4" />
    </linearGradient>
    <linearGradient
       id="c"
       x1="428.57"
       x2="406.57"
       gradientUnits="userSpaceOnUse"
       gradientTransform="matrix(1.45455,0,0,1,-583.38,-498.8)">
      <stop
         stop-color="#e3dfd6"
         id="stop7" />
      <stop
         offset="1"
         stop-color="#f4f1e8"
         id="stop9" />
    </linearGradient>
    <linearGradient
       id="e"
       y1="531.79"
       y2="544.79"
       x2="0"
       gradientUnits="userSpaceOnUse"
       gradientTransform="rotate(-45,-388.22401,769.75497)">
      <stop
         id="stop12" />
      <stop
         offset="1"
         stop-opacity="0"
         id="stop14" />
    </linearGradient>
    <linearGradient
       id="f"
       y1="541.51"
       x1="428.76"
       y2="528.51"
       gradientUnits="userSpaceOnUse"
       x2="430.47"
       gradientTransform="translate(-408.70999,-510.79302)">
      <stop
         stop-color="#ebc69a"
         id="stop17"
         offset="0"
         style="stop-color:#f0d5b5;stop-opacity:1;" />
      <stop
         offset="1"
         stop-color="#f4e0c8"
         id="stop19"
         style="stop-color:#f9ecdc;stop-opacity:1;" />
    </linearGradient>
    <linearGradient
       xlink:href="#a"
       id="b"
       gradientUnits="userSpaceOnUse"
       gradientTransform="matrix(1.45455,0,0,1,-583.38,-530.8)"
       y1="538.8"
       x2="0"
       y2="505.8" />
    <linearGradient
       xlink:href="#a"
       id="d"
       gradientUnits="userSpaceOnUse"
       gradientTransform="matrix(1.45455,0,0,1.12221,-583.38,-560.64)"
       y1="538.8"
       x2="0"
       y2="506.72" />
  </defs>
  <path
     d="M 8,6 V 8 H 40 V 6 Z"
     id="path26"
     style="color:#000000;fill:url(#b)"
     inkscape:connector-curvature="0" />
  <path
     d="M 8,7 V 8 H 40 V 7 Z"
     id="path28"
     style="color:#000000;fill:url(#c)"
     inkscape:connector-curvature="0" />
  <path
     d="M 8,8 V 39.8 A 4.2,4.2 0 0 0 9.227,42.773 4.196,4.196 0 0 0 12.199,44 H 35.801 A 4.2,4.2 0 0 0 38.773,42.773 4.196,4.196 0 0 0 40,39.801 V 8 H 12.2 Z"
     id="path30"
     style="color:#000000;fill:url(#d)"
     inkscape:connector-curvature="0" />
  <g
     id="g1">
    <path
       d="m 32.671135,52.923075 h 8.394923 a 6.0738454,6.0738454 0 0 0 4.297968,-1.774429 c 0.54954,-0.549541 0.993507,-1.204645 1.300094,-1.932062 0.30369,-0.723079 0.47,-1.517013 0.471445,-2.351443 V 37.018279 L 27.0644,16.597144 l -6.131694,6.131692 3.813509,3.816398 -5.629879,0.211138 -0.903843,1.584985 -1.446156,8.676922 z"
       id="path32"
       style="color:#000000;opacity:0.2;fill:url(#e);stroke-width:1"
       inkscape:connector-curvature="0" />
    <path
       d="m 24,15.323081 c -2.40351,0 -4.338464,1.934955 -4.338464,4.338464 C 19.661536,22.065049 21.59649,24 24,24 c 2.403504,0 4.338456,-1.934951 4.338456,-4.338455 0,-2.403509 -1.934952,-4.338464 -4.338456,-4.338464 m 0,10.123077 c -4.005847,0 -7.230771,1.289966 -7.230771,2.892307 v 8.676922 h 14.461538 v -8.676922 c 0,-1.602341 -3.224921,-2.892307 -7.230767,-2.892307 m 0,1.446154 c 3.204676,0 5.784616,0.919753 5.784616,2.065107 v 6.611815 H 18.215383 v -6.611815 c 0,-1.143908 2.57994,-2.065107 5.784617,-2.065107"
       id="path34"
       style="fill:url(#f);stroke-width:1"
       inkscape:connector-curvature="0" />
  </g>
  <g
     id="g38"
     style="color:#000000;fill:#7f8c8d;stroke-linecap:round;stroke-linejoin:round">
    <path
       d="m 21,4 h 1 v 6 H 21 Z M 11,4 h 1 v 6 h -1 z m 5,0 h 1 v 6 h -1 z m 10,0 h 1 v 6 h -1 z m 5,0 h 1 v 6 h -1 z m 5,0 h 1 v 6 h -1 z"
       id="path36"
       inkscape:connector-curvature="0" />
  </g>
</svg>
