<?xml version="1.0" encoding="UTF-8" standalone="no"?>
<svg
   viewBox="0 0 22 22"
   version="1.1"
   id="svg1"
   sodipodi:docname="fan-symbolic22.svg"
   xml:space="preserve"
   inkscape:version="1.4.2 (ebf0e940d0, 2025-05-08)"
   xmlns:inkscape="http://www.inkscape.org/namespaces/inkscape"
   xmlns:sodipodi="http://sodipodi.sourceforge.net/DTD/sodipodi-0.dtd"
   xmlns="http://www.w3.org/2000/svg"
   xmlns:svg="http://www.w3.org/2000/svg"><sodipodi:namedview
     id="namedview1"
     pagecolor="#505050"
     bordercolor="#ffffff"
     borderopacity="1"
     inkscape:showpageshadow="0"
     inkscape:pageopacity="0"
     inkscape:pagecheckerboard="1"
     inkscape:deskcolor="#505050"
     inkscape:zoom="52.545455"
     inkscape:cx="10.990484"
     inkscape:cy="11"
     inkscape:window-width="2556"
     inkscape:window-height="1364"
     inkscape:window-x="0"
     inkscape:window-y="0"
     inkscape:window-maximized="1"
     inkscape:current-layer="svg1" /><defs
     id="defs3051"><style
       type="text/css"
       id="current-color-scheme">
      .ColorScheme-Text {
        color:#eff0f1
      }
      </style><style
       type="text/css"
       id="current-color-scheme-5">.ColorScheme-Text {color:#fcfcfc;}</style></defs><path
     d="m 10.988019,10.189217 a 0.7988018,0.7988018 0 0 0 -0.798803,0.798802 0.7988018,0.7988018 0 0 0 0.798803,0.798801 0.7988018,0.7988018 0 0 0 0.798801,-0.798801 0.7988018,0.7988018 0 0 0 -0.798801,-0.798802 M 11.387419,3 c 3.594608,0 3.682476,2.851723 1.797304,3.794309 -0.790814,0.391414 -1.142287,1.230155 -1.294059,1.97304 0.383425,0.15976 0.718921,0.40739 0.974539,0.72691 C 15.820769,7.896656 19,8.527709 19,11.38742 c 0,3.594607 -2.851723,3.674487 -3.794308,1.781328 -0.399401,-0.790815 -1.246132,-1.142287 -1.989017,-1.29406 -0.15976,0.383425 -0.407388,0.710935 -0.72691,0.982527 1.589616,2.947578 0.958563,6.118821 -1.901148,6.118821 -3.594608,0 -3.6665,-2.859711 -1.781328,-3.802296 0.782826,-0.391413 1.134299,-1.222167 1.294059,-1.957064 C 9.709935,13.056915 9.366451,12.801299 9.110833,12.481777 6.163255,14.063405 3,13.44034 3,10.588617 3,6.994009 5.843735,6.906141 6.78632,8.799301 7.185721,9.590116 8.024464,9.9336 8.767349,10.085372 8.919121,9.701948 9.174737,9.366451 9.502247,9.110835 7.912631,6.163256 8.543684,3 11.387419,3 Z"
     id="path1"
     style="fill:currentColor"
     class="ColorScheme-Text" /></svg>
